<svg xmlns="http://www.w3.org/2000/svg" width="760" height="420" viewBox="0 0 760 420"><rect width="760" height="420" fill="#070b15"/><rect x="6" y="6" width="748" height="408" rx="16" fill="none" stroke="#ffd86a" stroke-opacity="0.5"/><text x="28" y="44" fill="#fff" font-family="Cinzel,serif" font-weight="900" font-size="28">Morgenröte</text><text x="28" y="66" fill="#fff4cf" font-family="Quicksand,sans-serif" font-size="14">HEILER · Klassen-Set</text><svg x="28" y="80" width="220" height="320" viewBox="0 0 200 320" preserveAspectRatio="xMidYMid meet"><defs><radialGradient id="sk_3" cx="42%" cy="34%" r="78%"><stop offset="0" stop-color="#ffe4c1"/><stop offset="1" stop-color="#c7ad93"/></radialGradient><linearGradient id="ha_3" x1="0" y1="0" x2="0" y2="1"><stop offset="0" stop-color="#fff557"/><stop offset="0.5" stop-color="#f5d04a"/><stop offset="1" stop-color="#a78d32"/></linearGradient><linearGradient id="bd_3" x1="0" y1="0" x2="0" y2="1"><stop offset="0" stop-color="#7e4a22"/><stop offset="0.55" stop-color="#6b3f1d"/><stop offset="1" stop-color="#492b14"/></linearGradient><linearGradient id="ou_3" x1="0" y1="0" x2="0" y2="1"><stop offset="0" stop-color="#d29e31"/><stop offset="0.55" stop-color="#b5882a"/><stop offset="1" stop-color="#775a1c"/></linearGradient><linearGradient id="tr_3" x1="0" y1="0" x2="0" y2="1"><stop offset="0" stop-color="#ffe276"/><stop offset="1" stop-color="#c2a456"/></linearGradient><radialGradient id="au_3" cx="50%" cy="50%" r="50%"><stop offset="0" stop-color="#fff680" stop-opacity="0.45"/><stop offset="1" stop-color="#f2cd6b" stop-opacity="0"/></radialGradient><radialGradient id="gs_3" cx="50%" cy="50%" r="50%"><stop offset="0" stop-color="#000" stop-opacity="0.34"/><stop offset="0.7" stop-color="#000" stop-opacity="0.14"/><stop offset="1" stop-color="#000" stop-opacity="0"/></radialGradient></defs><defs><linearGradient id="mg0_3" x1="0" y1="0" x2="0.35" y2="1"><stop offset="0" stop-color="#ffffff"/><stop offset="0.5" stop-color="#f3ead4"/><stop offset="1" stop-color="#928c7f"/></linearGradient><filter id="mf0_3" x="-20%" y="-20%" width="140%" height="140%"><feGaussianBlur in="SourceAlpha" stdDeviation="1.1" result="b"/><feSpecularLighting in="b" surfaceScale="3" specularConstant="0.85" specularExponent="22" lighting-color="#ffffff" result="s"><feDistantLight azimuth="235" elevation="55"/></feSpecularLighting><feComposite in="s" in2="SourceAlpha" operator="in" result="sc"/><feComposite in="SourceGraphic" in2="sc" operator="arithmetic" k1="0" k2="1" k3="1" k4="0"/></filter><pattern id="mp0_3" patternUnits="userSpaceOnUse" width="12" height="12"><circle cx="3" cy="3" r="1.1" fill="#ffffff" opacity="0.45"/><circle cx="3" cy="3" r="1.1" fill="none" stroke="#868175" stroke-width="0.5" opacity="0.5"/><circle cx="9" cy="9" r="1.1" fill="#ffffff" opacity="0.45"/><circle cx="9" cy="9" r="1.1" fill="none" stroke="#868175" stroke-width="0.5" opacity="0.5"/></pattern><filter id="mf1_3" x="-30%" y="-30%" width="160%" height="160%"><feDropShadow dx="0" dy="2.2" stdDeviation="2" flood-color="#000000" flood-opacity="0.34"/></filter><filter id="mf2_3" x="-25%" y="-25%" width="150%" height="150%"><feGaussianBlur in="SourceAlpha" stdDeviation="1" result="b"/><feSpecularLighting in="b" surfaceScale="4" specularConstant="1.05" specularExponent="14" lighting-color="#cfe6ff" result="s"><feDistantLight azimuth="55" elevation="22"/></feSpecularLighting><feComposite in="s" in2="SourceAlpha" operator="in" result="sc"/><feComposite in="SourceGraphic" in2="sc" operator="arithmetic" k1="0" k2="1" k3="0.85" k4="0"/></filter></defs><style>@keyframes hb_3{0%,100%{transform:translateY(0)}50%{transform:translateY(-1.3px)}}#hero_3{animation:hb_3 3.8s ease-in-out infinite}@media(prefers-reduced-motion:reduce){#hero_3{animation:none}}</style><ellipse cx="100" cy="312" rx="46" ry="10" fill="url(#gs_3)"/><g id="hero_3"><ellipse cx="100" cy="175" rx="96" ry="150" fill="url(#au_3)"/><path d="M74 130 L126 130 L146 264 C120 278 80 278 54 264 Z" fill="url(#mg0_3)" stroke="#7a756a" stroke-width="2" stroke-linejoin="round"/><path d="M100 130 L100 268" stroke="#aaa494" stroke-width="2" opacity="0.5"/><path d="M132 66 C151 108 153 168 147 214 C141 228 123 226 119 212 C125 168 121 116 115 86 Z" fill="url(#ha_3)"/><g transform="translate(200,0) scale(-1,1)"><path d="M132 66 C151 108 153 168 147 214 C141 228 123 226 119 212 C125 168 121 116 115 86 Z" fill="url(#ha_3)"/></g><g filter="url(#mf2_3)"><rect x="91" y="106" width="18" height="20" rx="8" fill="url(#sk_3)"/><path d="M100 124 L123 130 C131 152 116 176 113 196 C113 236 128 274 141 300 L59 300 C72 274 87 236 87 196 C84 176 69 152 77 130 Z" fill="url(#ou_3)" stroke="#513d13" stroke-width="2" stroke-linejoin="round"/><path d="M62 296 C84 305 116 305 138 296 L141 302 C116 312 84 312 59 302 Z" fill="url(#tr_3)"/><ellipse cx="100" cy="136" rx="24" ry="8" fill="#fff" opacity="0.12"/><ellipse cx="114" cy="306" rx="10" ry="5" fill="#5b4415"/><g transform="translate(200,0) scale(-1,1)"><ellipse cx="114" cy="306" rx="10" ry="5" fill="#5b4415"/></g></g><g filter="url(#mf0_3)"><path d="M100 126 L120 132 C124 150 120 172 113 182 C108 186 92 186 87 182 C80 172 76 150 80 132 Z" fill="url(#mg0_3)" stroke="#7a756a" stroke-width="2" stroke-linejoin="round"/><path d="M100 126 L120 132 C124 150 120 172 113 182 C108 186 92 186 87 182 C80 172 76 150 80 132 Z" fill="url(#mp0_3)"/></g><path d="M100 130 L100 182" stroke="#7a756a" stroke-width="1.5" opacity="0.6"/><ellipse cx="92" cy="148" rx="6" ry="9" fill="#fffffe" opacity="0.4"/><path d="M100 130.0 L100 182.0" stroke="#d8b24a" stroke-width="0.90" opacity="0.72" fill="none"/><path d="M100 130.0 q 5.4 2.6 3.0 7.8 M100 130.0 q -5.4 2.6 -3.0 7.8" stroke="#d8b24a" stroke-width="0.75" fill="none" opacity="0.7"/><path d="M100 156 q 7.2 -4.2 9.6 1.0 q -1.8 3.6 -4.5 2.1" stroke="#d8b24a" stroke-width="0.75" fill="none" opacity="0.66"/><path d="M100 156 q -7.2 -4.2 -9.6 1.0 q 1.8 3.6 4.5 2.1" stroke="#d8b24a" stroke-width="0.75" fill="none" opacity="0.66"/><g transform="translate(100 150) scale(2.4)"><path d="M0.0 -7.0 L1.1 -2.8 L4.9 -4.9 L2.8 -1.1 L7.0 0.0 L2.8 1.1 L4.9 4.9 L1.1 2.8 L0.0 7.0 L-1.1 2.8 L-4.9 4.9 L-2.8 1.1 L-7.0 0.0 L-2.8 -1.1 L-4.9 -4.9 L-1.1 -2.8 Z" fill="#fff4cf"/><circle cx="0" cy="0" r="3" fill="#e7b13a"/><circle cx="0" cy="0" r="9" fill="none" stroke="#e7b13a" stroke-width="1" opacity="0.6"/></g><ellipse cx="114" cy="305" rx="11" ry="6" fill="url(#mg0_3)" stroke="#7a756a" stroke-width="1.2"/><g transform="translate(200,0) scale(-1,1)"><ellipse cx="114" cy="305" rx="11" ry="6" fill="url(#mg0_3)" stroke="#7a756a" stroke-width="1.2"/></g><path d="M114 134 C129 138 134 166 130 191 C129 200 120 200 118 191 C117 166 113 148 109 138 Z" fill="url(#ou_3)"/><circle cx="124" cy="194" r="8.5" fill="url(#sk_3)"/><g transform="translate(200,0) scale(-1,1)"><path d="M114 134 C129 138 134 166 130 191 C129 200 120 200 118 191 C117 166 113 148 109 138 Z" fill="url(#ou_3)"/><circle cx="124" cy="194" r="8.5" fill="url(#sk_3)"/></g><circle cx="124" cy="194" r="9" fill="url(#mg0_3)" stroke="#7a756a" stroke-width="1.2"/><rect x="116" y="186" width="16" height="7" rx="2" fill="url(#mg0_3)" stroke="#7a756a" stroke-width="1"/><g transform="translate(200,0) scale(-1,1)"><circle cx="124" cy="194" r="9" fill="url(#mg0_3)" stroke="#7a756a" stroke-width="1.2"/><rect x="116" y="186" width="16" height="7" rx="2" fill="url(#mg0_3)" stroke="#7a756a" stroke-width="1"/></g><g filter="url(#mf1_3)"><g transform="translate(126 130) scale(1.6)"><path d="M-13 5 Q-15 -9 1 -11 Q16 -11 17 3 Q15 12 0 12 Q-10 11 -13 5 Z" fill="#efe6cf" stroke="#b9912f" stroke-width="1.3"/><path d="M-9 -5 Q0 -9 11 -4" fill="none" stroke="#e7b13a" stroke-width="1.2" opacity="0.8"/><path d="M-0.5 -6 Q-2.6 -17.5 -14 -21.3 Q-6 -15.5 -7.5 -2 Z" fill="#f3ead4" stroke="#b9912f" stroke-width="0.7"/><path d="M6.5 -6.4 Q11 -21.1 -0.3 -31.9 Q6.5 -20.7 -2.5 -5.6 Z" fill="#ffffff" stroke="#b9912f" stroke-width="0.7"/><path d="M12.7 -2.5 Q22.8 -11.5 17.2 -24.4 Q19.1 -13 5.3 -5.5 Z" fill="#f3ead4" stroke="#b9912f" stroke-width="0.7"/><path d="M2 -6 Q1 -16 0 -30" stroke="#e7b13a" stroke-width="1" fill="none" opacity="0.7"/><path d="M-12 -22 Q0 -30 12 -22" fill="none" stroke="#fff4cf" stroke-width="1.6" opacity="0.85"/></g><g transform="translate(200,0) scale(-1,1)"><g transform="translate(126 130) scale(1.6)"><path d="M-13 5 Q-15 -9 1 -11 Q16 -11 17 3 Q15 12 0 12 Q-10 11 -13 5 Z" fill="#efe6cf" stroke="#b9912f" stroke-width="1.3"/><path d="M-9 -5 Q0 -9 11 -4" fill="none" stroke="#e7b13a" stroke-width="1.2" opacity="0.8"/><path d="M-0.5 -6 Q-2.6 -17.5 -14 -21.3 Q-6 -15.5 -7.5 -2 Z" fill="#f3ead4" stroke="#b9912f" stroke-width="0.7"/><path d="M6.5 -6.4 Q11 -21.1 -0.3 -31.9 Q6.5 -20.7 -2.5 -5.6 Z" fill="#ffffff" stroke="#b9912f" stroke-width="0.7"/><path d="M12.7 -2.5 Q22.8 -11.5 17.2 -24.4 Q19.1 -13 5.3 -5.5 Z" fill="#f3ead4" stroke="#b9912f" stroke-width="0.7"/><path d="M2 -6 Q1 -16 0 -30" stroke="#e7b13a" stroke-width="1" fill="none" opacity="0.7"/><path d="M-12 -22 Q0 -30 12 -22" fill="none" stroke="#fff4cf" stroke-width="1.6" opacity="0.85"/></g></g></g><circle cx="100" cy="78" r="34" fill="url(#sk_3)" stroke="#867462" stroke-width="1.4"/><path d="M66 80 A34 34 0 0 0 134 80" fill="#c7ad93" opacity="0.18"/><ellipse cx="113" cy="81" rx="5" ry="6.4" fill="#fdfdff"/><circle cx="113" cy="82" r="3.6" fill="#5b3a2e"/><circle cx="113" cy="82" r="1.6" fill="#1c1118"/><circle cx="114.6" cy="79.6" r="1.3" fill="#fff"/><g transform="translate(200,0) scale(-1,1)"><ellipse cx="113" cy="81" rx="5" ry="6.4" fill="#fdfdff"/><circle cx="113" cy="82" r="3.6" fill="#5b3a2e"/><circle cx="113" cy="82" r="1.6" fill="#1c1118"/><circle cx="114.6" cy="79.6" r="1.3" fill="#fff"/></g><path d="M104 69 Q114 64 123 69" stroke="#8e792b" stroke-width="2.6" fill="none" stroke-linecap="round"/><g transform="translate(200,0) scale(-1,1)"><path d="M104 69 Q114 64 123 69" stroke="#8e792b" stroke-width="2.6" fill="none" stroke-linecap="round"/></g><ellipse cx="120" cy="93" rx="6.5" ry="4" fill="#ff8da1" opacity="0.22"/><g transform="translate(200,0) scale(-1,1)"><ellipse cx="120" cy="93" rx="6.5" ry="4" fill="#ff8da1" opacity="0.22"/></g><path d="M100 84 Q104 91 99 93" stroke="#c7ad93" stroke-width="2" fill="none" stroke-linecap="round"/><path d="M89 99 Q100 108 111 99" stroke="#b5566f" stroke-width="2.6" fill="none" stroke-linecap="round"/><path d="M64 80 C58 46 82 34 100 34 C118 34 142 46 136 80 C129 71 122 69 112 73 C107 63 102 61 99 70 C94 62 85 66 81 72 C75 68 70 72 64 80 Z" fill="url(#ha_3)"/><path d="M82 47 C92 41 108 41 118 47" stroke="#fff557" stroke-width="3" fill="none" opacity="0.45" stroke-linecap="round"/><path d="M100 36 L100 66" stroke="#a78d32" stroke-width="2" opacity="0.4" stroke-linecap="round"/><g filter="url(#mf1_3)"><g filter="url(#mf0_3)"><path d="M100 32 Q132 34 138 78 Q142 110 128 132 L118 132 Q124 108 120 92 Q116 70 100 66 Q84 70 80 92 Q76 108 82 132 L72 132 Q58 110 62 78 Q68 34 100 32 Z" fill="url(#mg0_3)" stroke="#7a756a" stroke-width="2" stroke-linejoin="round"/><path d="M100 32 Q132 34 138 78 Q142 110 128 132 L118 132 Q124 108 120 92 Q116 70 100 66 Q84 70 80 92 Q76 108 82 132 L72 132 Q58 110 62 78 Q68 34 100 32 Z" fill="url(#mp0_3)"/></g><path d="M100 66 Q120 70 120 92 Q120 108 116 124 M100 66 Q80 70 80 92 Q80 108 84 124" fill="none" stroke="#beb7a5" stroke-width="2.5" opacity="0.8" stroke-linecap="round"/><path d="M130 60 Q134 90 124 126" fill="none" stroke="#7a756a" stroke-width="1.5" opacity="0.45"/><g transform="translate(200,0) scale(-1,1)"><path d="M130 60 Q134 90 124 126" fill="none" stroke="#7a756a" stroke-width="1.5" opacity="0.45"/></g><path d="M100 34 Q116 38 120 60" fill="none" stroke="#fffffe" stroke-width="2" opacity="0.4" stroke-linecap="round"/><g transform="translate(100 24) scale(2.2)"><path d="M-11 -8 Q0 -15 11 -8" fill="none" stroke="#fff4cf" stroke-width="1.4" opacity="0.7"/><g><path d="M-7.0 -12.4 L-6.2 -9.8 L-3.6 -9.0 L-6.2 -8.2 L-7.0 -5.6 L-7.8 -8.2 L-10.4 -9.0 L-7.8 -9.8 Z" fill="#fff"/><circle cx="-7" cy="-9" r="2.2" fill="#fff4cf"/><animate attributeName="opacity" values="0.7;1;0.7" dur="2.2s" begin="0s" repeatCount="indefinite"/></g><g><path d="M0.0 -12.4 L0.8 -9.8 L3.4 -9.0 L0.8 -8.2 L0.0 -5.6 L-0.8 -8.2 L-3.4 -9.0 L-0.8 -9.8 Z" fill="#fff"/><circle cx="0" cy="-9" r="2.2" fill="#fff4cf"/><animate attributeName="opacity" values="0.7;1;0.7" dur="2.2s" begin="0.4s" repeatCount="indefinite"/></g><g><path d="M7.0 -12.4 L7.8 -9.8 L10.4 -9.0 L7.8 -8.2 L7.0 -5.6 L6.2 -8.2 L3.6 -9.0 L6.2 -9.8 Z" fill="#fff"/><circle cx="7" cy="-9" r="2.2" fill="#fff4cf"/><animate attributeName="opacity" values="0.7;1;0.7" dur="2.2s" begin="0.8s" repeatCount="indefinite"/></g></g></g></g></svg><rect x="300" y="96" width="96" height="96" rx="12" fill="#0d1426" stroke="#2a3a5c"/><svg x="308" y="104" width="80" height="80" viewBox="0 0 64 64" preserveAspectRatio="xMidYMid meet"><defs><filter id="sg_sl" x="-60%" y="-60%" width="220%" height="220%"><feDropShadow dx="0" dy="0" stdDeviation="2.6" flood-color="#ffe89a" flood-opacity="0.85"/></filter><linearGradient id="pl_sl" x1="0" y1="0" x2="0.35" y2="1"><stop offset="0" stop-color="#fffffd"/><stop offset="0.5" stop-color="#efe6cf"/><stop offset="1" stop-color="#8f8a7c"/></linearGradient><linearGradient id="ac_sl" x1="0" y1="0" x2="0.35" y2="1"><stop offset="0" stop-color="#ffd847"/><stop offset="0.5" stop-color="#e7b13a"/><stop offset="1" stop-color="#8b6a23"/></linearGradient></defs><rect x="0" y="0" width="64" height="64" fill="#ffe89a" opacity="0.10"/><g filter="url(#sg_sl)"><path d="M32 8 Q52 12 53 38 Q54 50 46 56 L41 53 Q47 40 45 30 Q41 18 32 16 Q23 18 19 30 Q17 40 23 53 L18 56 Q10 50 11 38 Q12 12 32 8 Z" fill="url(#pl_sl)" stroke="#b9912f" stroke-width="1.5"/><path d="M24 26 Q32 22 40 26 Q42 40 38 50 Q32 54 26 50 Q22 40 24 26 Z" fill="#cdb988" opacity="0.85"/><g transform="translate(32 30) scale(1.15)"><path d="M-11 -8 Q0 -15 11 -8" fill="none" stroke="#fff4cf" stroke-width="1.4" opacity="0.7"/><g><path d="M-7.0 -12.4 L-6.2 -9.8 L-3.6 -9.0 L-6.2 -8.2 L-7.0 -5.6 L-7.8 -8.2 L-10.4 -9.0 L-7.8 -9.8 Z" fill="#fff"/><circle cx="-7" cy="-9" r="2.2" fill="#fff4cf"/><animate attributeName="opacity" values="0.7;1;0.7" dur="2.2s" begin="0s" repeatCount="indefinite"/></g><g><path d="M0.0 -12.4 L0.8 -9.8 L3.4 -9.0 L0.8 -8.2 L0.0 -5.6 L-0.8 -8.2 L-3.4 -9.0 L-0.8 -9.8 Z" fill="#fff"/><circle cx="0" cy="-9" r="2.2" fill="#fff4cf"/><animate attributeName="opacity" values="0.7;1;0.7" dur="2.2s" begin="0.4s" repeatCount="indefinite"/></g><g><path d="M7.0 -12.4 L7.8 -9.8 L10.4 -9.0 L7.8 -8.2 L7.0 -5.6 L6.2 -8.2 L3.6 -9.0 L6.2 -9.8 Z" fill="#fff"/><circle cx="7" cy="-9" r="2.2" fill="#fff4cf"/><animate attributeName="opacity" values="0.7;1;0.7" dur="2.2s" begin="0.8s" repeatCount="indefinite"/></g></g><path d="M22 30 Q32 25 42 30" fill="none" stroke="#e7b13a" stroke-width="1.2" opacity="0.7"/></g><g opacity="0.9"><path d="M50.0 12.0 L50.7 14.3 L53.0 15.0 L50.7 15.7 L50.0 18.0 L49.3 15.7 L47.0 15.0 L49.3 14.3 Z" fill="#fff"/><animate attributeName="opacity" values="0.2;1;0.2" dur="2s" repeatCount="indefinite"/></g></svg><text x="348" y="210" fill="#9fb2cd" font-family="Quicksand,sans-serif" font-size="13" text-anchor="middle">Kopf</text><rect x="412" y="96" width="96" height="96" rx="12" fill="#0d1426" stroke="#2a3a5c"/><svg x="420" y="104" width="80" height="80" viewBox="0 0 64 64" preserveAspectRatio="xMidYMid meet"><defs><filter id="sg_sm" x="-60%" y="-60%" width="220%" height="220%"><feDropShadow dx="0" dy="0" stdDeviation="2.6" flood-color="#ffe89a" flood-opacity="0.85"/></filter><linearGradient id="pl_sm" x1="0" y1="0" x2="0.35" y2="1"><stop offset="0" stop-color="#fffffd"/><stop offset="0.5" stop-color="#efe6cf"/><stop offset="1" stop-color="#8f8a7c"/></linearGradient><linearGradient id="ac_sm" x1="0" y1="0" x2="0.35" y2="1"><stop offset="0" stop-color="#ffd847"/><stop offset="0.5" stop-color="#e7b13a"/><stop offset="1" stop-color="#8b6a23"/></linearGradient></defs><rect x="0" y="0" width="64" height="64" fill="#ffe89a" opacity="0.10"/><g filter="url(#sg_sm)"><g transform="translate(22 36) scale(1.05)"><path d="M-13 5 Q-15 -9 1 -11 Q16 -11 17 3 Q15 12 0 12 Q-10 11 -13 5 Z" fill="#efe6cf" stroke="#b9912f" stroke-width="1.3"/><path d="M-9 -5 Q0 -9 11 -4" fill="none" stroke="#e7b13a" stroke-width="1.2" opacity="0.8"/><path d="M-0.5 -6 Q-2.6 -17.5 -14 -21.3 Q-6 -15.5 -7.5 -2 Z" fill="#f3ead4" stroke="#b9912f" stroke-width="0.7"/><path d="M6.5 -6.4 Q11 -21.1 -0.3 -31.9 Q6.5 -20.7 -2.5 -5.6 Z" fill="#ffffff" stroke="#b9912f" stroke-width="0.7"/><path d="M12.7 -2.5 Q22.8 -11.5 17.2 -24.4 Q19.1 -13 5.3 -5.5 Z" fill="#f3ead4" stroke="#b9912f" stroke-width="0.7"/><path d="M2 -6 Q1 -16 0 -30" stroke="#e7b13a" stroke-width="1" fill="none" opacity="0.7"/><path d="M-12 -22 Q0 -30 12 -22" fill="none" stroke="#fff4cf" stroke-width="1.6" opacity="0.85"/></g><g transform="translate(64,0) scale(-1,1)"><g transform="translate(22 36) scale(1.05)"><path d="M-13 5 Q-15 -9 1 -11 Q16 -11 17 3 Q15 12 0 12 Q-10 11 -13 5 Z" fill="#efe6cf" stroke="#b9912f" stroke-width="1.3"/><path d="M-9 -5 Q0 -9 11 -4" fill="none" stroke="#e7b13a" stroke-width="1.2" opacity="0.8"/><path d="M-0.5 -6 Q-2.6 -17.5 -14 -21.3 Q-6 -15.5 -7.5 -2 Z" fill="#f3ead4" stroke="#b9912f" stroke-width="0.7"/><path d="M6.5 -6.4 Q11 -21.1 -0.3 -31.9 Q6.5 -20.7 -2.5 -5.6 Z" fill="#ffffff" stroke="#b9912f" stroke-width="0.7"/><path d="M12.7 -2.5 Q22.8 -11.5 17.2 -24.4 Q19.1 -13 5.3 -5.5 Z" fill="#f3ead4" stroke="#b9912f" stroke-width="0.7"/><path d="M2 -6 Q1 -16 0 -30" stroke="#e7b13a" stroke-width="1" fill="none" opacity="0.7"/><path d="M-12 -22 Q0 -30 12 -22" fill="none" stroke="#fff4cf" stroke-width="1.6" opacity="0.85"/></g></g></g><g opacity="0.9"><path d="M50.0 12.0 L50.7 14.3 L53.0 15.0 L50.7 15.7 L50.0 18.0 L49.3 15.7 L47.0 15.0 L49.3 14.3 Z" fill="#fff"/><animate attributeName="opacity" values="0.2;1;0.2" dur="2s" repeatCount="indefinite"/></g></svg><text x="460" y="210" fill="#9fb2cd" font-family="Quicksand,sans-serif" font-size="13" text-anchor="middle">Schultern</text><rect x="524" y="96" width="96" height="96" rx="12" fill="#0d1426" stroke="#2a3a5c"/><svg x="532" y="104" width="80" height="80" viewBox="0 0 64 64" preserveAspectRatio="xMidYMid meet"><defs><filter id="sg_sn" x="-60%" y="-60%" width="220%" height="220%"><feDropShadow dx="0" dy="0" stdDeviation="2.6" flood-color="#ffe89a" flood-opacity="0.85"/></filter><linearGradient id="pl_sn" x1="0" y1="0" x2="0.35" y2="1"><stop offset="0" stop-color="#fffffd"/><stop offset="0.5" stop-color="#efe6cf"/><stop offset="1" stop-color="#8f8a7c"/></linearGradient><linearGradient id="ac_sn" x1="0" y1="0" x2="0.35" y2="1"><stop offset="0" stop-color="#ffd847"/><stop offset="0.5" stop-color="#e7b13a"/><stop offset="1" stop-color="#8b6a23"/></linearGradient></defs><rect x="0" y="0" width="64" height="64" fill="#ffe89a" opacity="0.10"/><g filter="url(#sg_sn)"><path d="M22 12 L32 20 L42 12 Q50 16 52 34 L54 58 Q32 62 10 58 L12 34 Q14 16 22 12 Z" fill="url(#pl_sn)" stroke="#b9912f" stroke-width="1.5"/><path d="M22 12 L32 22 L42 12" fill="none" stroke="#e7b13a" stroke-width="1.4" opacity="0.8"/><path d="M32 24 L32 60" stroke="#e7b13a" stroke-width="1" opacity="0.5"/><g transform="translate(32 30) scale(1.2)"><path d="M0.0 -7.0 L1.1 -2.8 L4.9 -4.9 L2.8 -1.1 L7.0 0.0 L2.8 1.1 L4.9 4.9 L1.1 2.8 L0.0 7.0 L-1.1 2.8 L-4.9 4.9 L-2.8 1.1 L-7.0 0.0 L-2.8 -1.1 L-4.9 -4.9 L-1.1 -2.8 Z" fill="#fff4cf"/><circle cx="0" cy="0" r="3" fill="#e7b13a"/><circle cx="0" cy="0" r="9" fill="none" stroke="#e7b13a" stroke-width="1" opacity="0.6"/></g></g><g opacity="0.9"><path d="M50.0 12.0 L50.7 14.3 L53.0 15.0 L50.7 15.7 L50.0 18.0 L49.3 15.7 L47.0 15.0 L49.3 14.3 Z" fill="#fff"/><animate attributeName="opacity" values="0.2;1;0.2" dur="2s" repeatCount="indefinite"/></g></svg><text x="572" y="210" fill="#9fb2cd" font-family="Quicksand,sans-serif" font-size="13" text-anchor="middle">Brust</text><rect x="636" y="96" width="96" height="96" rx="12" fill="#0d1426" stroke="#2a3a5c"/><svg x="644" y="104" width="80" height="80" viewBox="0 0 64 64" preserveAspectRatio="xMidYMid meet"><defs><filter id="sg_so" x="-60%" y="-60%" width="220%" height="220%"><feDropShadow dx="0" dy="0" stdDeviation="2.6" flood-color="#ffe89a" flood-opacity="0.85"/></filter><linearGradient id="pl_so" x1="0" y1="0" x2="0.35" y2="1"><stop offset="0" stop-color="#fffffd"/><stop offset="0.5" stop-color="#efe6cf"/><stop offset="1" stop-color="#8f8a7c"/></linearGradient><linearGradient id="ac_so" x1="0" y1="0" x2="0.35" y2="1"><stop offset="0" stop-color="#ffd847"/><stop offset="0.5" stop-color="#e7b13a"/><stop offset="1" stop-color="#8b6a23"/></linearGradient></defs><rect x="0" y="0" width="64" height="64" fill="#ffe89a" opacity="0.10"/><g filter="url(#sg_so)"><path d="M22 28 L22 18 Q22 14 26 14 L38 14 Q42 14 42 18 L42 30 Q42 50 32 52 Q22 50 22 36 Z" fill="url(#pl_so)" stroke="#b9912f" stroke-width="1.5"/><rect x="22" y="44" width="20" height="8" rx="2" fill="url(#ac_so)" opacity="0.9"/><path d="M27.5 14.7 Q27.8 9.1 24.3 5.2 Q26.3 9.4 24.5 15.3 Z" fill="#e7d6a2" stroke="#b9912f" stroke-width="0.7"/><path d="M33.5 13 Q34.8 7 32 2 Q33.3 7 30.5 13 Z" fill="#e7d6a2" stroke="#b9912f" stroke-width="0.7"/><path d="M39.5 15.3 Q41.7 10.1 39.7 5.2 Q40.2 9.8 36.5 14.7 Z" fill="#e7d6a2" stroke="#b9912f" stroke-width="0.7"/><path d="M32.7 13 Q34.4 7 32 2 Q33.7 7 31.3 13 Z" fill="#e7b13a"/></g><g opacity="0.9"><path d="M50.0 12.0 L50.7 14.3 L53.0 15.0 L50.7 15.7 L50.0 18.0 L49.3 15.7 L47.0 15.0 L49.3 14.3 Z" fill="#fff"/><animate attributeName="opacity" values="0.2;1;0.2" dur="2s" repeatCount="indefinite"/></g></svg><text x="684" y="210" fill="#9fb2cd" font-family="Quicksand,sans-serif" font-size="13" text-anchor="middle">Hände</text><rect x="300" y="246" width="96" height="96" rx="12" fill="#0d1426" stroke="#2a3a5c"/><svg x="308" y="254" width="80" height="80" viewBox="0 0 64 64" preserveAspectRatio="xMidYMid meet"><defs><filter id="sg_sp" x="-60%" y="-60%" width="220%" height="220%"><feDropShadow dx="0" dy="0" stdDeviation="2.6" flood-color="#ffe89a" flood-opacity="0.85"/></filter><linearGradient id="pl_sp" x1="0" y1="0" x2="0.35" y2="1"><stop offset="0" stop-color="#fffffd"/><stop offset="0.5" stop-color="#efe6cf"/><stop offset="1" stop-color="#8f8a7c"/></linearGradient><linearGradient id="ac_sp" x1="0" y1="0" x2="0.35" y2="1"><stop offset="0" stop-color="#ffd847"/><stop offset="0.5" stop-color="#e7b13a"/><stop offset="1" stop-color="#8b6a23"/></linearGradient></defs><rect x="0" y="0" width="64" height="64" fill="#ffe89a" opacity="0.10"/><g filter="url(#sg_sp)"><path d="M34 12 L44 12 L42 52 L36 52 Z" fill="url(#pl_sp)" stroke="#b9912f" stroke-width="1.5"/><rect x="35" y="22" width="8" height="4" rx="1" fill="url(#ac_sp)" opacity="0.8"/><rect x="35" y="36" width="8" height="4" rx="1" fill="url(#ac_sp)" opacity="0.8"/><g transform="translate(64,0) scale(-1,1)"><path d="M34 12 L44 12 L42 52 L36 52 Z" fill="url(#pl_sp)" stroke="#b9912f" stroke-width="1.5"/><rect x="35" y="22" width="8" height="4" rx="1" fill="url(#ac_sp)" opacity="0.8"/><rect x="35" y="36" width="8" height="4" rx="1" fill="url(#ac_sp)" opacity="0.8"/></g></g><g opacity="0.9"><path d="M50.0 12.0 L50.7 14.3 L53.0 15.0 L50.7 15.7 L50.0 18.0 L49.3 15.7 L47.0 15.0 L49.3 14.3 Z" fill="#fff"/><animate attributeName="opacity" values="0.2;1;0.2" dur="2s" repeatCount="indefinite"/></g></svg><text x="348" y="360" fill="#9fb2cd" font-family="Quicksand,sans-serif" font-size="13" text-anchor="middle">Beine</text><rect x="412" y="246" width="96" height="96" rx="12" fill="#0d1426" stroke="#2a3a5c"/><svg x="420" y="254" width="80" height="80" viewBox="0 0 64 64" preserveAspectRatio="xMidYMid meet"><defs><filter id="sg_sq" x="-60%" y="-60%" width="220%" height="220%"><feDropShadow dx="0" dy="0" stdDeviation="2.6" flood-color="#ffe89a" flood-opacity="0.85"/></filter><linearGradient id="pl_sq" x1="0" y1="0" x2="0.35" y2="1"><stop offset="0" stop-color="#fffffd"/><stop offset="0.5" stop-color="#efe6cf"/><stop offset="1" stop-color="#8f8a7c"/></linearGradient><linearGradient id="ac_sq" x1="0" y1="0" x2="0.35" y2="1"><stop offset="0" stop-color="#ffd847"/><stop offset="0.5" stop-color="#e7b13a"/><stop offset="1" stop-color="#8b6a23"/></linearGradient></defs><rect x="0" y="0" width="64" height="64" fill="#ffe89a" opacity="0.10"/><g filter="url(#sg_sq)"><path d="M22 12 L38 12 L40 40 L52 40 L52 52 L20 52 L20 24 Z" fill="url(#pl_sq)" stroke="#b9912f" stroke-width="1.5"/><rect x="20" y="48" width="32" height="6" rx="2" fill="#cdb988"/><path d="M25.5 14.1 Q27.1 8.7 24.7 4 Q25.6 8.6 22.5 13.9 Z" fill="#e7d6a2" stroke="#b9912f" stroke-width="0.7"/><path d="M32.5 14.1 Q34.2 8.2 31.8 3 Q32.7 8.1 29.5 13.9 Z" fill="#e7d6a2" stroke="#b9912f" stroke-width="0.7"/><path d="M31.7 14 Q33.8 8.1 31.8 3 Q33.1 8.1 30.3 14 Z" fill="#e7b13a"/></g><g opacity="0.9"><path d="M50.0 12.0 L50.7 14.3 L53.0 15.0 L50.7 15.7 L50.0 18.0 L49.3 15.7 L47.0 15.0 L49.3 14.3 Z" fill="#fff"/><animate attributeName="opacity" values="0.2;1;0.2" dur="2s" repeatCount="indefinite"/></g></svg><text x="460" y="360" fill="#9fb2cd" font-family="Quicksand,sans-serif" font-size="13" text-anchor="middle">Füße</text><rect x="524" y="246" width="96" height="96" rx="12" fill="#0d1426" stroke="#2a3a5c"/><svg x="532" y="254" width="80" height="80" viewBox="0 0 64 64" preserveAspectRatio="xMidYMid meet"><defs><filter id="sg_sr" x="-60%" y="-60%" width="220%" height="220%"><feDropShadow dx="0" dy="0" stdDeviation="2.6" flood-color="#ffe89a" flood-opacity="0.85"/></filter><linearGradient id="pl_sr" x1="0" y1="0" x2="0.35" y2="1"><stop offset="0" stop-color="#fffffd"/><stop offset="0.5" stop-color="#efe6cf"/><stop offset="1" stop-color="#8f8a7c"/></linearGradient><linearGradient id="ac_sr" x1="0" y1="0" x2="0.35" y2="1"><stop offset="0" stop-color="#ffd847"/><stop offset="0.5" stop-color="#e7b13a"/><stop offset="1" stop-color="#8b6a23"/></linearGradient></defs><rect x="0" y="0" width="64" height="64" fill="#ffe89a" opacity="0.10"/><g filter="url(#sg_sr)"><path d="M22 12 L42 12 L52 54 Q32 60 12 54 Z" fill="url(#pl_sr)" stroke="#b9912f" stroke-width="1.5"/><path d="M22 12 Q32 22 42 12" fill="none" stroke="#e7b13a" stroke-width="1.4" opacity="0.7"/><path d="M32 14 L32 56" stroke="#e7b13a" stroke-width="1" opacity="0.4"/><g transform="translate(32 24) scale(0.9)"><path d="M0.0 -7.0 L1.1 -2.8 L4.9 -4.9 L2.8 -1.1 L7.0 0.0 L2.8 1.1 L4.9 4.9 L1.1 2.8 L0.0 7.0 L-1.1 2.8 L-4.9 4.9 L-2.8 1.1 L-7.0 0.0 L-2.8 -1.1 L-4.9 -4.9 L-1.1 -2.8 Z" fill="#fff4cf"/><circle cx="0" cy="0" r="3" fill="#e7b13a"/><circle cx="0" cy="0" r="9" fill="none" stroke="#e7b13a" stroke-width="1" opacity="0.6"/></g></g><g opacity="0.9"><path d="M50.0 12.0 L50.7 14.3 L53.0 15.0 L50.7 15.7 L50.0 18.0 L49.3 15.7 L47.0 15.0 L49.3 14.3 Z" fill="#fff"/><animate attributeName="opacity" values="0.2;1;0.2" dur="2s" repeatCount="indefinite"/></g></svg><text x="572" y="360" fill="#9fb2cd" font-family="Quicksand,sans-serif" font-size="13" text-anchor="middle">Umhang</text></svg>