<svg xmlns="http://www.w3.org/2000/svg" width="760" height="420" viewBox="0 0 760 420"><rect width="760" height="420" fill="#070b15"/><rect x="6" y="6" width="748" height="408" rx="16" fill="none" stroke="#e01f3a" stroke-opacity="0.5"/><text x="28" y="44" fill="#fff" font-family="Cinzel,serif" font-weight="900" font-size="28">Blutschatten</text><text x="28" y="66" fill="#ff5a4a" font-family="Quicksand,sans-serif" font-size="14">SCHURKE · Klassen-Set</text><svg x="28" y="80" width="220" height="320" viewBox="0 0 200 320" preserveAspectRatio="xMidYMid meet"><defs><radialGradient id="sk_1" cx="42%" cy="34%" r="78%"><stop offset="0" stop-color="#ffe4c1"/><stop offset="1" stop-color="#c7ad93"/></radialGradient><linearGradient id="ha_1" x1="0" y1="0" x2="0" y2="1"><stop offset="0" stop-color="#fff557"/><stop offset="0.5" stop-color="#f5d04a"/><stop offset="1" stop-color="#a78d32"/></linearGradient><linearGradient id="bd_1" x1="0" y1="0" x2="0" y2="1"><stop offset="0" stop-color="#7e4a22"/><stop offset="0.55" stop-color="#6b3f1d"/><stop offset="1" stop-color="#492b14"/></linearGradient><linearGradient id="ou_1" x1="0" y1="0" x2="0" y2="1"><stop offset="0" stop-color="#d29e31"/><stop offset="0.55" stop-color="#b5882a"/><stop offset="1" stop-color="#775a1c"/></linearGradient><linearGradient id="tr_1" x1="0" y1="0" x2="0" y2="1"><stop offset="0" stop-color="#ffe276"/><stop offset="1" stop-color="#c2a456"/></linearGradient><radialGradient id="au_1" cx="50%" cy="50%" r="50%"><stop offset="0" stop-color="#fff680" stop-opacity="0.45"/><stop offset="1" stop-color="#f2cd6b" stop-opacity="0"/></radialGradient><radialGradient id="gs_1" cx="50%" cy="50%" r="50%"><stop offset="0" stop-color="#000" stop-opacity="0.34"/><stop offset="0.7" stop-color="#000" stop-opacity="0.14"/><stop offset="1" stop-color="#000" stop-opacity="0"/></radialGradient></defs><defs><linearGradient id="mg0_1" x1="0" y1="0" x2="0.35" y2="1"><stop offset="0" stop-color="#21151a"/><stop offset="0.5" stop-color="#1b1115"/><stop offset="1" stop-color="#100a0d"/></linearGradient><filter id="mf0_1" x="-20%" y="-20%" width="140%" height="140%"><feGaussianBlur in="SourceAlpha" stdDeviation="1.1" result="b"/><feSpecularLighting in="b" surfaceScale="3" specularConstant="0.85" specularExponent="22" lighting-color="#ffffff" result="s"><feDistantLight azimuth="235" elevation="55"/></feSpecularLighting><feComposite in="s" in2="SourceAlpha" operator="in" result="sc"/><feComposite in="SourceGraphic" in2="sc" operator="arithmetic" k1="0" k2="1" k3="1" k4="0"/></filter><pattern id="mp0_1" patternUnits="userSpaceOnUse" width="12" height="12"><circle cx="3" cy="3" r="1.1" fill="#22151a" opacity="0.45"/><circle cx="3" cy="3" r="1.1" fill="none" stroke="#0f090c" stroke-width="0.5" opacity="0.5"/><circle cx="9" cy="9" r="1.1" fill="#22151a" opacity="0.45"/><circle cx="9" cy="9" r="1.1" fill="none" stroke="#0f090c" stroke-width="0.5" opacity="0.5"/></pattern><filter id="mf1_1" x="-30%" y="-30%" width="160%" height="160%"><feDropShadow dx="0" dy="2.2" stdDeviation="2" flood-color="#000000" flood-opacity="0.34"/></filter><filter id="mf2_1" x="-25%" y="-25%" width="150%" height="150%"><feGaussianBlur in="SourceAlpha" stdDeviation="1" result="b"/><feSpecularLighting in="b" surfaceScale="4" specularConstant="1.05" specularExponent="14" lighting-color="#cfe6ff" result="s"><feDistantLight azimuth="55" elevation="22"/></feSpecularLighting><feComposite in="s" in2="SourceAlpha" operator="in" result="sc"/><feComposite in="SourceGraphic" in2="sc" operator="arithmetic" k1="0" k2="1" k3="0.85" k4="0"/></filter></defs><style>@keyframes hb_1{0%,100%{transform:translateY(0)}50%{transform:translateY(-1.3px)}}#hero_1{animation:hb_1 3.8s ease-in-out infinite}@media(prefers-reduced-motion:reduce){#hero_1{animation:none}}</style><ellipse cx="100" cy="312" rx="46" ry="10" fill="url(#gs_1)"/><g id="hero_1"><ellipse cx="100" cy="175" rx="96" ry="150" fill="url(#au_1)"/><path d="M74 130 L126 130 L146 264 C120 278 80 278 54 264 Z" fill="url(#mg0_1)" stroke="#0e090b" stroke-width="2" stroke-linejoin="round"/><path d="M100 130 L100 268" stroke="#130c0f" stroke-width="2" opacity="0.5"/><path d="M132 66 C151 108 153 168 147 214 C141 228 123 226 119 212 C125 168 121 116 115 86 Z" fill="url(#ha_1)"/><g transform="translate(200,0) scale(-1,1)"><path d="M132 66 C151 108 153 168 147 214 C141 228 123 226 119 212 C125 168 121 116 115 86 Z" fill="url(#ha_1)"/></g><g filter="url(#mf2_1)"><rect x="91" y="106" width="18" height="20" rx="8" fill="url(#sk_1)"/><path d="M100 124 L123 130 C131 152 116 176 113 196 C113 236 128 274 141 300 L59 300 C72 274 87 236 87 196 C84 176 69 152 77 130 Z" fill="url(#ou_1)" stroke="#513d13" stroke-width="2" stroke-linejoin="round"/><path d="M62 296 C84 305 116 305 138 296 L141 302 C116 312 84 312 59 302 Z" fill="url(#tr_1)"/><ellipse cx="100" cy="136" rx="24" ry="8" fill="#fff" opacity="0.12"/><ellipse cx="114" cy="306" rx="10" ry="5" fill="#5b4415"/><g transform="translate(200,0) scale(-1,1)"><ellipse cx="114" cy="306" rx="10" ry="5" fill="#5b4415"/></g></g><g filter="url(#mf0_1)"><path d="M100 126 L120 132 C124 150 120 172 113 182 C108 186 92 186 87 182 C80 172 76 150 80 132 Z" fill="url(#mg0_1)" stroke="#0e090b" stroke-width="2" stroke-linejoin="round"/><path d="M100 126 L120 132 C124 150 120 172 113 182 C108 186 92 186 87 182 C80 172 76 150 80 132 Z" fill="url(#mp0_1)"/></g><path d="M100 130 L100 182" stroke="#0e090b" stroke-width="1.5" opacity="0.6"/><ellipse cx="92" cy="148" rx="6" ry="9" fill="#201419" opacity="0.4"/><path d="M100 130.0 L100 182.0" stroke="#d8b24a" stroke-width="0.90" opacity="0.72" fill="none"/><path d="M100 130.0 q 5.4 2.6 3.0 7.8 M100 130.0 q -5.4 2.6 -3.0 7.8" stroke="#d8b24a" stroke-width="0.75" fill="none" opacity="0.7"/><path d="M100 156 q 7.2 -4.2 9.6 1.0 q -1.8 3.6 -4.5 2.1" stroke="#d8b24a" stroke-width="0.75" fill="none" opacity="0.66"/><path d="M100 156 q -7.2 -4.2 -9.6 1.0 q 1.8 3.6 4.5 2.1" stroke="#d8b24a" stroke-width="0.75" fill="none" opacity="0.66"/><g transform="translate(100 150) scale(2.4)"><path d="M0 -8 L4 0 L0 10 L-4 0 Z" fill="#e01f3a" opacity="0.9"/><path d="M0 -8 L0 10" stroke="#ff6a52" stroke-width="1" opacity="0.8"/></g><ellipse cx="114" cy="305" rx="11" ry="6" fill="url(#mg0_1)" stroke="#0e090b" stroke-width="1.2"/><g transform="translate(200,0) scale(-1,1)"><ellipse cx="114" cy="305" rx="11" ry="6" fill="url(#mg0_1)" stroke="#0e090b" stroke-width="1.2"/></g><path d="M114 134 C129 138 134 166 130 191 C129 200 120 200 118 191 C117 166 113 148 109 138 Z" fill="url(#ou_1)"/><circle cx="124" cy="194" r="8.5" fill="url(#sk_1)"/><g transform="translate(200,0) scale(-1,1)"><path d="M114 134 C129 138 134 166 130 191 C129 200 120 200 118 191 C117 166 113 148 109 138 Z" fill="url(#ou_1)"/><circle cx="124" cy="194" r="8.5" fill="url(#sk_1)"/></g><circle cx="124" cy="194" r="9" fill="url(#mg0_1)" stroke="#0e090b" stroke-width="1.2"/><rect x="116" y="186" width="16" height="7" rx="2" fill="url(#mg0_1)" stroke="#0e090b" stroke-width="1"/><g transform="translate(200,0) scale(-1,1)"><circle cx="124" cy="194" r="9" fill="url(#mg0_1)" stroke="#0e090b" stroke-width="1.2"/><rect x="116" y="186" width="16" height="7" rx="2" fill="url(#mg0_1)" stroke="#0e090b" stroke-width="1"/></g><g filter="url(#mf1_1)"><g transform="translate(140 124) scale(1.6)"><ellipse cx="3" cy="-8" rx="22" ry="17" fill="#ff1f2f" opacity="0.14"/><path d="M4.8 -11.3 Q-11.7 -22.5 -28.8 -24.9 Q-13.5 -19.2 1.2 -4.7 Z" fill="#251017" stroke="#5a0f18" stroke-width="0.7"/><path d="M6.7 -10.5 Q-5 -31.1 -21 -43.6 Q-8.8 -28.6 -0.7 -5.5 Z" fill="#251017" stroke="#5a0f18" stroke-width="0.7"/><path d="M8.5 -8.4 Q7.9 -34.3 -0.3 -54.9 Q2.4 -33.9 -2.5 -7.6 Z" fill="#251017" stroke="#5a0f18" stroke-width="0.7"/><path d="M7.1 -5.6 Q20.3 -25.3 24.5 -45.2 Q16.2 -27.7 -1.1 -10.4 Z" fill="#251017" stroke="#5a0f18" stroke-width="0.7"/><path d="M5 -4.5 Q23.1 -12.7 34.2 -26 Q21.1 -16.2 1 -11.5 Z" fill="#251017" stroke="#5a0f18" stroke-width="0.7"/><path d="M1.1 -6.7 Q-0.5 -17.7 -7.2 -25 Q-2.6 -17 -3.1 -5.3 Z" fill="#1d1418" stroke="#5a0f18" stroke-width="0.7"/><path d="M9.6 -4.4 Q17.8 -10.3 20.5 -18.9 Q16.2 -11.8 6.4 -7.6 Z" fill="#1d1418" stroke="#5a0f18" stroke-width="0.7"/><path d="M-18 8 Q-22 -12 4 -15 Q25 -15 27 6 Q23 18 2 18 Q-13 17 -18 8 Z" fill="#120c0f" stroke="#5a0f18" stroke-width="1.5"/><path d="M-13 3 Q-16 -10 4 -12 Q20 -12 22 3 Q18 11 2 12 Q-9 11 -13 3 Z" fill="#1d1418"/><path d="M-9 -3 Q2 -9 14 -4" fill="none" stroke="#261a1f" stroke-width="1.8" opacity="0.75"/><path d="M-11 6 Q3 12 19 6" fill="none" stroke="#e01f3a" stroke-width="1.4" opacity="0.9"/><path d="M3.6 -9.1 Q-12.3 -21.4 -28.8 -24.9 Q-12.9 -20.3 2.4 -6.9 Z" fill="#e01f3a"/><path d="M4.3 -8.9 Q-6.3 -30.3 -21 -43.6 Q-7.5 -29.4 1.7 -7.1 Z" fill="#e01f3a"/><path d="M4.9 -8.1 Q6.1 -34.1 -0.3 -54.9 Q4.3 -34 1.1 -7.9 Z" fill="#e01f3a"/><path d="M4.4 -7.2 Q19 -26.1 24.5 -45.2 Q17.6 -26.9 1.6 -8.8 Z" fill="#e01f3a"/><path d="M3.7 -6.8 Q22.5 -13.8 34.2 -26 Q21.8 -15 2.3 -9.2 Z" fill="#e01f3a"/><path d="M3.6 -10.9 Q-18.7 -17.2 -38.1 -16.7 Q-19.3 -14.3 2.4 -5.1 Z" fill="#1d1418" stroke="#5a0f18" stroke-width="0.7"/><path d="M3.2 -9 Q-18.9 -16.2 -38.1 -16.7 Q-19.1 -15.2 2.8 -7 Z" fill="#e01f3a"/><path d="M3.6 -5.1 Q23.1 -13.8 40.2 -15.9 Q22.5 -16.7 2.4 -10.9 Z" fill="#1d1418" stroke="#5a0f18" stroke-width="0.7"/><path d="M3.2 -7 Q22.9 -14.8 40.2 -15.9 Q22.7 -15.8 2.8 -9 Z" fill="#e01f3a"/><path d="M-13 5 Q3 11 18 5" fill="none" stroke="#ff1f2f" stroke-width="1.1" opacity="0.6"/></g><g transform="translate(200,0) scale(-1,1)"><g transform="translate(140 124) scale(1.6)"><ellipse cx="3" cy="-8" rx="22" ry="17" fill="#ff1f2f" opacity="0.14"/><path d="M4.8 -11.3 Q-11.7 -22.5 -28.8 -24.9 Q-13.5 -19.2 1.2 -4.7 Z" fill="#251017" stroke="#5a0f18" stroke-width="0.7"/><path d="M6.7 -10.5 Q-5 -31.1 -21 -43.6 Q-8.8 -28.6 -0.7 -5.5 Z" fill="#251017" stroke="#5a0f18" stroke-width="0.7"/><path d="M8.5 -8.4 Q7.9 -34.3 -0.3 -54.9 Q2.4 -33.9 -2.5 -7.6 Z" fill="#251017" stroke="#5a0f18" stroke-width="0.7"/><path d="M7.1 -5.6 Q20.3 -25.3 24.5 -45.2 Q16.2 -27.7 -1.1 -10.4 Z" fill="#251017" stroke="#5a0f18" stroke-width="0.7"/><path d="M5 -4.5 Q23.1 -12.7 34.2 -26 Q21.1 -16.2 1 -11.5 Z" fill="#251017" stroke="#5a0f18" stroke-width="0.7"/><path d="M1.1 -6.7 Q-0.5 -17.7 -7.2 -25 Q-2.6 -17 -3.1 -5.3 Z" fill="#1d1418" stroke="#5a0f18" stroke-width="0.7"/><path d="M9.6 -4.4 Q17.8 -10.3 20.5 -18.9 Q16.2 -11.8 6.4 -7.6 Z" fill="#1d1418" stroke="#5a0f18" stroke-width="0.7"/><path d="M-18 8 Q-22 -12 4 -15 Q25 -15 27 6 Q23 18 2 18 Q-13 17 -18 8 Z" fill="#120c0f" stroke="#5a0f18" stroke-width="1.5"/><path d="M-13 3 Q-16 -10 4 -12 Q20 -12 22 3 Q18 11 2 12 Q-9 11 -13 3 Z" fill="#1d1418"/><path d="M-9 -3 Q2 -9 14 -4" fill="none" stroke="#261a1f" stroke-width="1.8" opacity="0.75"/><path d="M-11 6 Q3 12 19 6" fill="none" stroke="#e01f3a" stroke-width="1.4" opacity="0.9"/><path d="M3.6 -9.1 Q-12.3 -21.4 -28.8 -24.9 Q-12.9 -20.3 2.4 -6.9 Z" fill="#e01f3a"/><path d="M4.3 -8.9 Q-6.3 -30.3 -21 -43.6 Q-7.5 -29.4 1.7 -7.1 Z" fill="#e01f3a"/><path d="M4.9 -8.1 Q6.1 -34.1 -0.3 -54.9 Q4.3 -34 1.1 -7.9 Z" fill="#e01f3a"/><path d="M4.4 -7.2 Q19 -26.1 24.5 -45.2 Q17.6 -26.9 1.6 -8.8 Z" fill="#e01f3a"/><path d="M3.7 -6.8 Q22.5 -13.8 34.2 -26 Q21.8 -15 2.3 -9.2 Z" fill="#e01f3a"/><path d="M3.6 -10.9 Q-18.7 -17.2 -38.1 -16.7 Q-19.3 -14.3 2.4 -5.1 Z" fill="#1d1418" stroke="#5a0f18" stroke-width="0.7"/><path d="M3.2 -9 Q-18.9 -16.2 -38.1 -16.7 Q-19.1 -15.2 2.8 -7 Z" fill="#e01f3a"/><path d="M3.6 -5.1 Q23.1 -13.8 40.2 -15.9 Q22.5 -16.7 2.4 -10.9 Z" fill="#1d1418" stroke="#5a0f18" stroke-width="0.7"/><path d="M3.2 -7 Q22.9 -14.8 40.2 -15.9 Q22.7 -15.8 2.8 -9 Z" fill="#e01f3a"/><path d="M-13 5 Q3 11 18 5" fill="none" stroke="#ff1f2f" stroke-width="1.1" opacity="0.6"/></g></g></g><circle cx="100" cy="78" r="34" fill="url(#sk_1)" stroke="#867462" stroke-width="1.4"/><path d="M66 80 A34 34 0 0 0 134 80" fill="#c7ad93" opacity="0.18"/><ellipse cx="113" cy="81" rx="5" ry="6.4" fill="#fdfdff"/><circle cx="113" cy="82" r="3.6" fill="#5b3a2e"/><circle cx="113" cy="82" r="1.6" fill="#1c1118"/><circle cx="114.6" cy="79.6" r="1.3" fill="#fff"/><g transform="translate(200,0) scale(-1,1)"><ellipse cx="113" cy="81" rx="5" ry="6.4" fill="#fdfdff"/><circle cx="113" cy="82" r="3.6" fill="#5b3a2e"/><circle cx="113" cy="82" r="1.6" fill="#1c1118"/><circle cx="114.6" cy="79.6" r="1.3" fill="#fff"/></g><path d="M104 69 Q114 64 123 69" stroke="#8e792b" stroke-width="2.6" fill="none" stroke-linecap="round"/><g transform="translate(200,0) scale(-1,1)"><path d="M104 69 Q114 64 123 69" stroke="#8e792b" stroke-width="2.6" fill="none" stroke-linecap="round"/></g><ellipse cx="120" cy="93" rx="6.5" ry="4" fill="#ff8da1" opacity="0.22"/><g transform="translate(200,0) scale(-1,1)"><ellipse cx="120" cy="93" rx="6.5" ry="4" fill="#ff8da1" opacity="0.22"/></g><path d="M100 84 Q104 91 99 93" stroke="#c7ad93" stroke-width="2" fill="none" stroke-linecap="round"/><path d="M89 99 Q100 108 111 99" stroke="#b5566f" stroke-width="2.6" fill="none" stroke-linecap="round"/><path d="M64 80 C58 46 82 34 100 34 C118 34 142 46 136 80 C129 71 122 69 112 73 C107 63 102 61 99 70 C94 62 85 66 81 72 C75 68 70 72 64 80 Z" fill="url(#ha_1)"/><path d="M82 47 C92 41 108 41 118 47" stroke="#fff557" stroke-width="3" fill="none" opacity="0.45" stroke-linecap="round"/><path d="M100 36 L100 66" stroke="#a78d32" stroke-width="2" opacity="0.4" stroke-linecap="round"/><g filter="url(#mf1_1)"><g filter="url(#mf0_1)"><path d="M100 28 Q137 32 141 80 Q144 112 129 134 L116 132 Q124 106 121 90 Q117 66 100 62 Q83 66 79 90 Q76 106 84 132 L71 134 Q56 112 59 80 Q63 32 100 28 Z" fill="url(#mg0_1)" stroke="#0e090b" stroke-width="2" stroke-linejoin="round"/><path d="M100 28 Q137 32 141 80 Q144 112 129 134 L116 132 Q124 106 121 90 Q117 66 100 62 Q83 66 79 90 Q76 106 84 132 L71 134 Q56 112 59 80 Q63 32 100 28 Z" fill="url(#mp0_1)"/></g><path d="M100 62 Q121 66 121 90 Q121 106 117 124 M100 62 Q79 66 79 90 Q79 106 83 124" fill="none" stroke="#150d10" stroke-width="2.5" opacity="0.7" stroke-linecap="round"/><path d="M100 30 Q126 36 132 78" fill="none" stroke="#201419" stroke-width="2" opacity="0.4" stroke-linecap="round"/><path d="M132 64 Q136 96 126 128" fill="none" stroke="#0e090b" stroke-width="1.5" opacity="0.45"/><g transform="translate(200,0) scale(-1,1)"><path d="M132 64 Q136 96 126 128" fill="none" stroke="#0e090b" stroke-width="1.5" opacity="0.45"/></g><path d="M78 70 Q100 64 122 70 Q124 84 116 92 L84 92 Q76 84 78 70 Z" fill="#120b0f" opacity="0.52"/><ellipse cx="87" cy="81" rx="2.6" ry="1.6" fill="#cfe8ff" opacity="0.9"/><ellipse cx="113" cy="81" rx="2.6" ry="1.6" fill="#cfe8ff" opacity="0.9"/><path d="M80 90 Q100 95 120 90 Q122 104 112 112 Q100 118 88 112 Q78 104 80 90 Z" fill="#150d10" stroke="#0e090b" stroke-width="1.6" stroke-linejoin="round"/><path d="M85 95 Q100 99 115 95" fill="none" stroke="#0c0809" stroke-width="1.5" opacity="0.7"/><g transform="translate(100 80) scale(1.7)"><path d="M-9 2 Q0 -14 9 2" fill="none" stroke="#e01f3a" stroke-width="1.6" opacity="0.8"/><ellipse cx="-3.5" cy="0" rx="1.7" ry="1.1" fill="#ff1f2f"/><ellipse cx="3.5" cy="0" rx="1.7" ry="1.1" fill="#ff1f2f"/></g></g></g></svg><rect x="300" y="96" width="96" height="96" rx="12" fill="#0d1426" stroke="#2a3a5c"/><svg x="308" y="104" width="80" height="80" viewBox="0 0 64 64" preserveAspectRatio="xMidYMid meet"><defs><filter id="sg_s7" x="-60%" y="-60%" width="220%" height="220%"><feDropShadow dx="0" dy="0" stdDeviation="2.6" flood-color="#ff1f2f" flood-opacity="0.85"/></filter><linearGradient id="pl_s7" x1="0" y1="0" x2="0.35" y2="1"><stop offset="0" stop-color="#23181d"/><stop offset="0.5" stop-color="#1d1418"/><stop offset="1" stop-color="#110c0e"/></linearGradient><linearGradient id="ac_s7" x1="0" y1="0" x2="0.35" y2="1"><stop offset="0" stop-color="#ff2647"/><stop offset="0.5" stop-color="#e01f3a"/><stop offset="1" stop-color="#861323"/></linearGradient></defs><rect x="0" y="0" width="64" height="64" fill="#ff1f2f" opacity="0.10"/><g filter="url(#sg_s7)"><path d="M32 8 Q52 12 53 38 Q54 50 46 56 L41 53 Q47 40 45 30 Q41 18 32 16 Q23 18 19 30 Q17 40 23 53 L18 56 Q10 50 11 38 Q12 12 32 8 Z" fill="url(#pl_s7)" stroke="#5a0f18" stroke-width="1.5"/><path d="M24 26 Q32 22 40 26 Q42 40 38 50 Q32 54 26 50 Q22 40 24 26 Z" fill="#0b0608" opacity="0.85"/><g transform="translate(32 30) scale(1.15)"><path d="M-9 2 Q0 -14 9 2" fill="none" stroke="#e01f3a" stroke-width="1.6" opacity="0.8"/><ellipse cx="-3.5" cy="0" rx="1.7" ry="1.1" fill="#ff1f2f"/><ellipse cx="3.5" cy="0" rx="1.7" ry="1.1" fill="#ff1f2f"/></g><path d="M22 30 Q32 25 42 30" fill="none" stroke="#e01f3a" stroke-width="1.2" opacity="0.7"/></g><g opacity="0.9"><path d="M50.0 12.0 L50.7 14.3 L53.0 15.0 L50.7 15.7 L50.0 18.0 L49.3 15.7 L47.0 15.0 L49.3 14.3 Z" fill="#fff"/><animate attributeName="opacity" values="0.2;1;0.2" dur="2s" repeatCount="indefinite"/></g></svg><text x="348" y="210" fill="#9fb2cd" font-family="Quicksand,sans-serif" font-size="13" text-anchor="middle">Kopf</text><rect x="412" y="96" width="96" height="96" rx="12" fill="#0d1426" stroke="#2a3a5c"/><svg x="420" y="104" width="80" height="80" viewBox="0 0 64 64" preserveAspectRatio="xMidYMid meet"><defs><filter id="sg_s8" x="-60%" y="-60%" width="220%" height="220%"><feDropShadow dx="0" dy="0" stdDeviation="2.6" flood-color="#ff1f2f" flood-opacity="0.85"/></filter><linearGradient id="pl_s8" x1="0" y1="0" x2="0.35" y2="1"><stop offset="0" stop-color="#23181d"/><stop offset="0.5" stop-color="#1d1418"/><stop offset="1" stop-color="#110c0e"/></linearGradient><linearGradient id="ac_s8" x1="0" y1="0" x2="0.35" y2="1"><stop offset="0" stop-color="#ff2647"/><stop offset="0.5" stop-color="#e01f3a"/><stop offset="1" stop-color="#861323"/></linearGradient></defs><rect x="0" y="0" width="64" height="64" fill="#ff1f2f" opacity="0.10"/><g filter="url(#sg_s8)"><g transform="translate(19 48) scale(0.78)"><ellipse cx="3" cy="-8" rx="22" ry="17" fill="#ff1f2f" opacity="0.14"/><path d="M4.8 -11.3 Q-11.7 -22.5 -28.8 -24.9 Q-13.5 -19.2 1.2 -4.7 Z" fill="#251017" stroke="#5a0f18" stroke-width="0.7"/><path d="M6.7 -10.5 Q-5 -31.1 -21 -43.6 Q-8.8 -28.6 -0.7 -5.5 Z" fill="#251017" stroke="#5a0f18" stroke-width="0.7"/><path d="M8.5 -8.4 Q7.9 -34.3 -0.3 -54.9 Q2.4 -33.9 -2.5 -7.6 Z" fill="#251017" stroke="#5a0f18" stroke-width="0.7"/><path d="M7.1 -5.6 Q20.3 -25.3 24.5 -45.2 Q16.2 -27.7 -1.1 -10.4 Z" fill="#251017" stroke="#5a0f18" stroke-width="0.7"/><path d="M5 -4.5 Q23.1 -12.7 34.2 -26 Q21.1 -16.2 1 -11.5 Z" fill="#251017" stroke="#5a0f18" stroke-width="0.7"/><path d="M1.1 -6.7 Q-0.5 -17.7 -7.2 -25 Q-2.6 -17 -3.1 -5.3 Z" fill="#1d1418" stroke="#5a0f18" stroke-width="0.7"/><path d="M9.6 -4.4 Q17.8 -10.3 20.5 -18.9 Q16.2 -11.8 6.4 -7.6 Z" fill="#1d1418" stroke="#5a0f18" stroke-width="0.7"/><path d="M-18 8 Q-22 -12 4 -15 Q25 -15 27 6 Q23 18 2 18 Q-13 17 -18 8 Z" fill="#120c0f" stroke="#5a0f18" stroke-width="1.5"/><path d="M-13 3 Q-16 -10 4 -12 Q20 -12 22 3 Q18 11 2 12 Q-9 11 -13 3 Z" fill="#1d1418"/><path d="M-9 -3 Q2 -9 14 -4" fill="none" stroke="#261a1f" stroke-width="1.8" opacity="0.75"/><path d="M-11 6 Q3 12 19 6" fill="none" stroke="#e01f3a" stroke-width="1.4" opacity="0.9"/><path d="M3.6 -9.1 Q-12.3 -21.4 -28.8 -24.9 Q-12.9 -20.3 2.4 -6.9 Z" fill="#e01f3a"/><path d="M4.3 -8.9 Q-6.3 -30.3 -21 -43.6 Q-7.5 -29.4 1.7 -7.1 Z" fill="#e01f3a"/><path d="M4.9 -8.1 Q6.1 -34.1 -0.3 -54.9 Q4.3 -34 1.1 -7.9 Z" fill="#e01f3a"/><path d="M4.4 -7.2 Q19 -26.1 24.5 -45.2 Q17.6 -26.9 1.6 -8.8 Z" fill="#e01f3a"/><path d="M3.7 -6.8 Q22.5 -13.8 34.2 -26 Q21.8 -15 2.3 -9.2 Z" fill="#e01f3a"/><path d="M3.6 -10.9 Q-18.7 -17.2 -38.1 -16.7 Q-19.3 -14.3 2.4 -5.1 Z" fill="#1d1418" stroke="#5a0f18" stroke-width="0.7"/><path d="M3.2 -9 Q-18.9 -16.2 -38.1 -16.7 Q-19.1 -15.2 2.8 -7 Z" fill="#e01f3a"/><path d="M3.6 -5.1 Q23.1 -13.8 40.2 -15.9 Q22.5 -16.7 2.4 -10.9 Z" fill="#1d1418" stroke="#5a0f18" stroke-width="0.7"/><path d="M3.2 -7 Q22.9 -14.8 40.2 -15.9 Q22.7 -15.8 2.8 -9 Z" fill="#e01f3a"/><path d="M-13 5 Q3 11 18 5" fill="none" stroke="#ff1f2f" stroke-width="1.1" opacity="0.6"/></g><g transform="translate(64,0) scale(-1,1)"><g transform="translate(19 48) scale(0.78)"><ellipse cx="3" cy="-8" rx="22" ry="17" fill="#ff1f2f" opacity="0.14"/><path d="M4.8 -11.3 Q-11.7 -22.5 -28.8 -24.9 Q-13.5 -19.2 1.2 -4.7 Z" fill="#251017" stroke="#5a0f18" stroke-width="0.7"/><path d="M6.7 -10.5 Q-5 -31.1 -21 -43.6 Q-8.8 -28.6 -0.7 -5.5 Z" fill="#251017" stroke="#5a0f18" stroke-width="0.7"/><path d="M8.5 -8.4 Q7.9 -34.3 -0.3 -54.9 Q2.4 -33.9 -2.5 -7.6 Z" fill="#251017" stroke="#5a0f18" stroke-width="0.7"/><path d="M7.1 -5.6 Q20.3 -25.3 24.5 -45.2 Q16.2 -27.7 -1.1 -10.4 Z" fill="#251017" stroke="#5a0f18" stroke-width="0.7"/><path d="M5 -4.5 Q23.1 -12.7 34.2 -26 Q21.1 -16.2 1 -11.5 Z" fill="#251017" stroke="#5a0f18" stroke-width="0.7"/><path d="M1.1 -6.7 Q-0.5 -17.7 -7.2 -25 Q-2.6 -17 -3.1 -5.3 Z" fill="#1d1418" stroke="#5a0f18" stroke-width="0.7"/><path d="M9.6 -4.4 Q17.8 -10.3 20.5 -18.9 Q16.2 -11.8 6.4 -7.6 Z" fill="#1d1418" stroke="#5a0f18" stroke-width="0.7"/><path d="M-18 8 Q-22 -12 4 -15 Q25 -15 27 6 Q23 18 2 18 Q-13 17 -18 8 Z" fill="#120c0f" stroke="#5a0f18" stroke-width="1.5"/><path d="M-13 3 Q-16 -10 4 -12 Q20 -12 22 3 Q18 11 2 12 Q-9 11 -13 3 Z" fill="#1d1418"/><path d="M-9 -3 Q2 -9 14 -4" fill="none" stroke="#261a1f" stroke-width="1.8" opacity="0.75"/><path d="M-11 6 Q3 12 19 6" fill="none" stroke="#e01f3a" stroke-width="1.4" opacity="0.9"/><path d="M3.6 -9.1 Q-12.3 -21.4 -28.8 -24.9 Q-12.9 -20.3 2.4 -6.9 Z" fill="#e01f3a"/><path d="M4.3 -8.9 Q-6.3 -30.3 -21 -43.6 Q-7.5 -29.4 1.7 -7.1 Z" fill="#e01f3a"/><path d="M4.9 -8.1 Q6.1 -34.1 -0.3 -54.9 Q4.3 -34 1.1 -7.9 Z" fill="#e01f3a"/><path d="M4.4 -7.2 Q19 -26.1 24.5 -45.2 Q17.6 -26.9 1.6 -8.8 Z" fill="#e01f3a"/><path d="M3.7 -6.8 Q22.5 -13.8 34.2 -26 Q21.8 -15 2.3 -9.2 Z" fill="#e01f3a"/><path d="M3.6 -10.9 Q-18.7 -17.2 -38.1 -16.7 Q-19.3 -14.3 2.4 -5.1 Z" fill="#1d1418" stroke="#5a0f18" stroke-width="0.7"/><path d="M3.2 -9 Q-18.9 -16.2 -38.1 -16.7 Q-19.1 -15.2 2.8 -7 Z" fill="#e01f3a"/><path d="M3.6 -5.1 Q23.1 -13.8 40.2 -15.9 Q22.5 -16.7 2.4 -10.9 Z" fill="#1d1418" stroke="#5a0f18" stroke-width="0.7"/><path d="M3.2 -7 Q22.9 -14.8 40.2 -15.9 Q22.7 -15.8 2.8 -9 Z" fill="#e01f3a"/><path d="M-13 5 Q3 11 18 5" fill="none" stroke="#ff1f2f" stroke-width="1.1" opacity="0.6"/></g></g></g><g opacity="0.9"><path d="M50.0 12.0 L50.7 14.3 L53.0 15.0 L50.7 15.7 L50.0 18.0 L49.3 15.7 L47.0 15.0 L49.3 14.3 Z" fill="#fff"/><animate attributeName="opacity" values="0.2;1;0.2" dur="2s" repeatCount="indefinite"/></g></svg><text x="460" y="210" fill="#9fb2cd" font-family="Quicksand,sans-serif" font-size="13" text-anchor="middle">Schultern</text><rect x="524" y="96" width="96" height="96" rx="12" fill="#0d1426" stroke="#2a3a5c"/><svg x="532" y="104" width="80" height="80" viewBox="0 0 64 64" preserveAspectRatio="xMidYMid meet"><defs><filter id="sg_s9" x="-60%" y="-60%" width="220%" height="220%"><feDropShadow dx="0" dy="0" stdDeviation="2.6" flood-color="#ff1f2f" flood-opacity="0.85"/></filter><linearGradient id="pl_s9" x1="0" y1="0" x2="0.35" y2="1"><stop offset="0" stop-color="#23181d"/><stop offset="0.5" stop-color="#1d1418"/><stop offset="1" stop-color="#110c0e"/></linearGradient><linearGradient id="ac_s9" x1="0" y1="0" x2="0.35" y2="1"><stop offset="0" stop-color="#ff2647"/><stop offset="0.5" stop-color="#e01f3a"/><stop offset="1" stop-color="#861323"/></linearGradient></defs><rect x="0" y="0" width="64" height="64" fill="#ff1f2f" opacity="0.10"/><g filter="url(#sg_s9)"><path d="M18 14 L46 14 L48 30 Q48 52 32 58 Q16 52 16 30 Z" fill="url(#pl_s9)" stroke="#5a0f18" stroke-width="1.5"/><path d="M32 16 L32 56" stroke="#e01f3a" stroke-width="1.2" opacity="0.6"/><g transform="translate(32 30) scale(1.25)"><path d="M0 -8 L4 0 L0 10 L-4 0 Z" fill="#e01f3a" opacity="0.9"/><path d="M0 -8 L0 10" stroke="#ff6a52" stroke-width="1" opacity="0.8"/></g></g><g opacity="0.9"><path d="M50.0 12.0 L50.7 14.3 L53.0 15.0 L50.7 15.7 L50.0 18.0 L49.3 15.7 L47.0 15.0 L49.3 14.3 Z" fill="#fff"/><animate attributeName="opacity" values="0.2;1;0.2" dur="2s" repeatCount="indefinite"/></g></svg><text x="572" y="210" fill="#9fb2cd" font-family="Quicksand,sans-serif" font-size="13" text-anchor="middle">Brust</text><rect x="636" y="96" width="96" height="96" rx="12" fill="#0d1426" stroke="#2a3a5c"/><svg x="644" y="104" width="80" height="80" viewBox="0 0 64 64" preserveAspectRatio="xMidYMid meet"><defs><filter id="sg_sa" x="-60%" y="-60%" width="220%" height="220%"><feDropShadow dx="0" dy="0" stdDeviation="2.6" flood-color="#ff1f2f" flood-opacity="0.85"/></filter><linearGradient id="pl_sa" x1="0" y1="0" x2="0.35" y2="1"><stop offset="0" stop-color="#23181d"/><stop offset="0.5" stop-color="#1d1418"/><stop offset="1" stop-color="#110c0e"/></linearGradient><linearGradient id="ac_sa" x1="0" y1="0" x2="0.35" y2="1"><stop offset="0" stop-color="#ff2647"/><stop offset="0.5" stop-color="#e01f3a"/><stop offset="1" stop-color="#861323"/></linearGradient></defs><rect x="0" y="0" width="64" height="64" fill="#ff1f2f" opacity="0.10"/><g filter="url(#sg_sa)"><path d="M22 28 L22 18 Q22 14 26 14 L38 14 Q42 14 42 18 L42 30 Q42 50 32 52 Q22 50 22 36 Z" fill="url(#pl_sa)" stroke="#5a0f18" stroke-width="1.5"/><rect x="22" y="44" width="20" height="8" rx="2" fill="url(#ac_sa)" opacity="0.9"/><path d="M27.5 14.7 Q27.8 9.1 24.3 5.2 Q26.3 9.4 24.5 15.3 Z" fill="#251017" stroke="#5a0f18" stroke-width="0.7"/><path d="M33.5 13 Q34.8 7 32 2 Q33.3 7 30.5 13 Z" fill="#251017" stroke="#5a0f18" stroke-width="0.7"/><path d="M39.5 15.3 Q41.7 10.1 39.7 5.2 Q40.2 9.8 36.5 14.7 Z" fill="#251017" stroke="#5a0f18" stroke-width="0.7"/><path d="M32.7 13 Q34.4 7 32 2 Q33.7 7 31.3 13 Z" fill="#e01f3a"/></g><g opacity="0.9"><path d="M50.0 12.0 L50.7 14.3 L53.0 15.0 L50.7 15.7 L50.0 18.0 L49.3 15.7 L47.0 15.0 L49.3 14.3 Z" fill="#fff"/><animate attributeName="opacity" values="0.2;1;0.2" dur="2s" repeatCount="indefinite"/></g></svg><text x="684" y="210" fill="#9fb2cd" font-family="Quicksand,sans-serif" font-size="13" text-anchor="middle">Hände</text><rect x="300" y="246" width="96" height="96" rx="12" fill="#0d1426" stroke="#2a3a5c"/><svg x="308" y="254" width="80" height="80" viewBox="0 0 64 64" preserveAspectRatio="xMidYMid meet"><defs><filter id="sg_sb" x="-60%" y="-60%" width="220%" height="220%"><feDropShadow dx="0" dy="0" stdDeviation="2.6" flood-color="#ff1f2f" flood-opacity="0.85"/></filter><linearGradient id="pl_sb" x1="0" y1="0" x2="0.35" y2="1"><stop offset="0" stop-color="#23181d"/><stop offset="0.5" stop-color="#1d1418"/><stop offset="1" stop-color="#110c0e"/></linearGradient><linearGradient id="ac_sb" x1="0" y1="0" x2="0.35" y2="1"><stop offset="0" stop-color="#ff2647"/><stop offset="0.5" stop-color="#e01f3a"/><stop offset="1" stop-color="#861323"/></linearGradient></defs><rect x="0" y="0" width="64" height="64" fill="#ff1f2f" opacity="0.10"/><g filter="url(#sg_sb)"><path d="M34 12 L44 12 L42 52 L36 52 Z" fill="url(#pl_sb)" stroke="#5a0f18" stroke-width="1.5"/><rect x="35" y="22" width="8" height="4" rx="1" fill="url(#ac_sb)" opacity="0.8"/><rect x="35" y="36" width="8" height="4" rx="1" fill="url(#ac_sb)" opacity="0.8"/><g transform="translate(64,0) scale(-1,1)"><path d="M34 12 L44 12 L42 52 L36 52 Z" fill="url(#pl_sb)" stroke="#5a0f18" stroke-width="1.5"/><rect x="35" y="22" width="8" height="4" rx="1" fill="url(#ac_sb)" opacity="0.8"/><rect x="35" y="36" width="8" height="4" rx="1" fill="url(#ac_sb)" opacity="0.8"/></g></g><g opacity="0.9"><path d="M50.0 12.0 L50.7 14.3 L53.0 15.0 L50.7 15.7 L50.0 18.0 L49.3 15.7 L47.0 15.0 L49.3 14.3 Z" fill="#fff"/><animate attributeName="opacity" values="0.2;1;0.2" dur="2s" repeatCount="indefinite"/></g></svg><text x="348" y="360" fill="#9fb2cd" font-family="Quicksand,sans-serif" font-size="13" text-anchor="middle">Beine</text><rect x="412" y="246" width="96" height="96" rx="12" fill="#0d1426" stroke="#2a3a5c"/><svg x="420" y="254" width="80" height="80" viewBox="0 0 64 64" preserveAspectRatio="xMidYMid meet"><defs><filter id="sg_sc" x="-60%" y="-60%" width="220%" height="220%"><feDropShadow dx="0" dy="0" stdDeviation="2.6" flood-color="#ff1f2f" flood-opacity="0.85"/></filter><linearGradient id="pl_sc" x1="0" y1="0" x2="0.35" y2="1"><stop offset="0" stop-color="#23181d"/><stop offset="0.5" stop-color="#1d1418"/><stop offset="1" stop-color="#110c0e"/></linearGradient><linearGradient id="ac_sc" x1="0" y1="0" x2="0.35" y2="1"><stop offset="0" stop-color="#ff2647"/><stop offset="0.5" stop-color="#e01f3a"/><stop offset="1" stop-color="#861323"/></linearGradient></defs><rect x="0" y="0" width="64" height="64" fill="#ff1f2f" opacity="0.10"/><g filter="url(#sg_sc)"><path d="M22 12 L38 12 L40 40 L52 40 L52 52 L20 52 L20 24 Z" fill="url(#pl_sc)" stroke="#5a0f18" stroke-width="1.5"/><rect x="20" y="48" width="32" height="6" rx="2" fill="#0b0608"/><path d="M25.5 14.1 Q27.1 8.7 24.7 4 Q25.6 8.6 22.5 13.9 Z" fill="#251017" stroke="#5a0f18" stroke-width="0.7"/><path d="M32.5 14.1 Q34.2 8.2 31.8 3 Q32.7 8.1 29.5 13.9 Z" fill="#251017" stroke="#5a0f18" stroke-width="0.7"/><path d="M31.7 14 Q33.8 8.1 31.8 3 Q33.1 8.1 30.3 14 Z" fill="#e01f3a"/></g><g opacity="0.9"><path d="M50.0 12.0 L50.7 14.3 L53.0 15.0 L50.7 15.7 L50.0 18.0 L49.3 15.7 L47.0 15.0 L49.3 14.3 Z" fill="#fff"/><animate attributeName="opacity" values="0.2;1;0.2" dur="2s" repeatCount="indefinite"/></g></svg><text x="460" y="360" fill="#9fb2cd" font-family="Quicksand,sans-serif" font-size="13" text-anchor="middle">Füße</text><rect x="524" y="246" width="96" height="96" rx="12" fill="#0d1426" stroke="#2a3a5c"/><svg x="532" y="254" width="80" height="80" viewBox="0 0 64 64" preserveAspectRatio="xMidYMid meet"><defs><filter id="sg_sd" x="-60%" y="-60%" width="220%" height="220%"><feDropShadow dx="0" dy="0" stdDeviation="2.6" flood-color="#ff1f2f" flood-opacity="0.85"/></filter><linearGradient id="pl_sd" x1="0" y1="0" x2="0.35" y2="1"><stop offset="0" stop-color="#23181d"/><stop offset="0.5" stop-color="#1d1418"/><stop offset="1" stop-color="#110c0e"/></linearGradient><linearGradient id="ac_sd" x1="0" y1="0" x2="0.35" y2="1"><stop offset="0" stop-color="#ff2647"/><stop offset="0.5" stop-color="#e01f3a"/><stop offset="1" stop-color="#861323"/></linearGradient></defs><rect x="0" y="0" width="64" height="64" fill="#ff1f2f" opacity="0.10"/><g filter="url(#sg_sd)"><path d="M22 12 L42 12 L52 54 Q32 60 12 54 Z" fill="url(#pl_sd)" stroke="#5a0f18" stroke-width="1.5"/><path d="M22 12 Q32 22 42 12" fill="none" stroke="#e01f3a" stroke-width="1.4" opacity="0.7"/><path d="M32 14 L32 56" stroke="#e01f3a" stroke-width="1" opacity="0.4"/><g transform="translate(32 24) scale(0.9)"><path d="M0 -8 L4 0 L0 10 L-4 0 Z" fill="#e01f3a" opacity="0.9"/><path d="M0 -8 L0 10" stroke="#ff6a52" stroke-width="1" opacity="0.8"/></g></g><g opacity="0.9"><path d="M50.0 12.0 L50.7 14.3 L53.0 15.0 L50.7 15.7 L50.0 18.0 L49.3 15.7 L47.0 15.0 L49.3 14.3 Z" fill="#fff"/><animate attributeName="opacity" values="0.2;1;0.2" dur="2s" repeatCount="indefinite"/></g></svg><text x="572" y="360" fill="#9fb2cd" font-family="Quicksand,sans-serif" font-size="13" text-anchor="middle">Umhang</text></svg>